HIERARCHY
ROOT Hips
{
	OFFSET -3.958830 18.904000 13.208200
	CHANNELS 6 Xposition Yposition Zposition Zrotation Yrotation Xrotation 
	JOINT LHipJoint
	{
		OFFSET 0.000000 0.000000 0.000000
		CHANNELS 3 Zrotation Yrotation Xrotation
		JOINT LeftUpLeg
		{
			OFFSET 1.800000 -1.400000 0.085000
			CHANNELS 3 Zrotation Yrotation Xrotation
			JOINT LeftLeg
			{
				OFFSET 2.215000 -6.000000 0.000000
				CHANNELS 3 Zrotation Yrotation Xrotation
				JOINT LeftFoot
				{
					OFFSET 2.500000 -6.900000 0.000000
					CHANNELS 3 Zrotation Yrotation Xrotation
					JOINT LeftToeBase
					{
						OFFSET 0.200000 -0.500000 1.950000
						CHANNELS 3 Zrotation Yrotation Xrotation
						End Site
						{
							OFFSET 0.000000 0.000000 0.000000
						}
					}
				}
			}
		}
	}
	JOINT RHipJoint
	{
		OFFSET 0.000000 0.000000 0.000000
		CHANNELS 3 Zrotation Yrotation Xrotation
		JOINT RightUpLeg
		{
			OFFSET -1.800000 -1.400000 0.085000
			CHANNELS 3 Zrotation Yrotation Xrotation
			JOINT RightLeg
			{
				OFFSET -2.215000 -6.000000 0.000000
				CHANNELS 3 Zrotation Yrotation Xrotation
				JOINT RightFoot
				{
					OFFSET -2.500000 -6.900000 0.000000
					CHANNELS 3 Zrotation Yrotation Xrotation
					JOINT RightToeBase
					{
						OFFSET -0.200000 -0.500000 1.950000
						CHANNELS 3 Zrotation Yrotation Xrotation
						End Site
						{
							OFFSET 0.000000 0.000000 0.000000
						}
					}
				}
			}
		}
	}
	JOINT LowerBack
	{
		OFFSET 0.000000 0.000000 0.000000
		CHANNELS 3 Zrotation Yrotation Xrotation
		JOINT Spine
		{
			OFFSET -0.087000 1.940000 -0.288900
			CHANNELS 3 Zrotation Yrotation Xrotation
			JOINT Spine1
			{
				OFFSET 0.000000 1.950000 0.060000
				CHANNELS 3 Zrotation Yrotation Xrotation
				JOINT Neck
				{
					OFFSET 0.000000 0.000000 0.000000
					CHANNELS 3 Zrotation Yrotation Xrotation
					JOINT Neck1
					{
						OFFSET 0.000000 1.600000 0.340000
						CHANNELS 3 Zrotation Yrotation Xrotation
						JOINT Head
						{
							OFFSET 0.000000 1.667000 -0.240000
							CHANNELS 3 Zrotation Yrotation Xrotation
							End Site
							{
								OFFSET 0.000000 0.000000 0.000000
							}
						}
					}
				}
				JOINT LeftShoulder
				{
					OFFSET 0.000000 0.000000 0.000000
					CHANNELS 3 Zrotation Yrotation Xrotation
					JOINT LeftArm
					{
						OFFSET 2.700000 1.550000 -0.730000
						CHANNELS 3 Zrotation Yrotation Xrotation
						JOINT LeftForeArm
						{
							OFFSET 5.450000 0.000000 0.000000
							CHANNELS 3 Zrotation Yrotation Xrotation
							JOINT LeftHand
							{
								OFFSET 3.450000 0.000000 0.000000
								CHANNELS 3 Zrotation Yrotation Xrotation
								JOINT LeftHandIndex1
								{
									OFFSET 0.750000 0.000000 0.000000
									CHANNELS 3 Zrotation Yrotation Xrotation
									End Site
									{
										OFFSET 0.000000 0.000000 0.000000
									}
								}
							}
						}
					}
				}
				JOINT RightShoulder
				{
					OFFSET 0.000000 0.000000 0.000000
					CHANNELS 3 Zrotation Yrotation Xrotation
					JOINT RightArm
					{
						OFFSET -2.700000 1.550000 -0.730000
						CHANNELS 3 Zrotation Yrotation Xrotation
						JOINT RightForeArm
						{
							OFFSET -5.450000 0.000000 0.000000
							CHANNELS 3 Zrotation Yrotation Xrotation
							JOINT RightHand
							{
								OFFSET -3.450000 0.000000 0.000000
								CHANNELS 3 Zrotation Yrotation Xrotation
								JOINT RightHandIndex1
								{
									OFFSET -0.750000 0.000000 0.000000
									CHANNELS 3 Zrotation Yrotation Xrotation
									End Site
									{
										OFFSET 0.000000 0.000000 0.000000
									}
								}
							}
						}
					}
				}
			}
		}
	}
}
MOTION
Frames: 12
Frame Time: 0.016667
-0.116610 17.230540 -9.969430 -10.662290 -30.481330 -7.755201 -14.218386 12.409376 2.166204 7.912368 3.029978 -25.355919 6.955547 7.318322 40.727888 -0.028553 6.640212 2.203142 0.313670 0.156070 0.329400 18.998010 -12.990406 3.983027 0.559400 -1.680595 4.817446 10.736151 -7.032957 10.540529 -0.772096 -5.548526 2.610777 0.061520 0.282250 0.384650 -6.163998 4.341425 -7.273834 32.641971 8.323967 26.582740 8.883443 9.535663 20.093695 -1.078901 0.218601 -10.668590 6.320015 2.209497 41.227235 -18.160150 9.227270 -3.911390 0.732222 -3.905243 -0.490596 -20.579203 -11.538977 0.022716 13.882732 2.256241 -0.278937 -4.786756 2.603010 0.176880 0.414080 -0.058520 0.096470 2.987287 13.850137 9.965300 62.294729 38.537423 8.950462 -139.762162 21.361318 -96.220947 1.838096 -1.836548 -0.017970 0.067070 0.010050 -0.152360 
-0.114000 17.232960 -9.965050 -11.002236 -30.461906 -7.879093 -14.210046 12.479350 2.128914 8.477792 3.248900 -24.724998 6.606727 7.433153 40.132491 -0.021861 6.529039 2.222818 0.347690 0.200490 0.346080 18.994395 -12.987674 4.006391 0.744124 -1.708080 4.976985 10.799513 -7.062967 10.752178 -0.795676 -5.560136 2.598194 0.072070 0.238490 0.392130 -6.147809 4.281522 -7.256597 33.218080 8.162262 26.900804 8.423404 9.556595 19.290443 -0.664227 0.545352 -10.376380 7.032268 1.948080 41.621458 -18.254180 9.340890 -4.218690 -0.018782 -3.239356 -0.845514 -19.058199 -11.538343 0.042175 13.113455 3.059307 -0.218672 -4.770514 2.598274 0.180050 0.389000 -0.030210 0.103820 2.746281 12.883930 9.816235 63.494909 37.954467 9.613459 -139.777358 21.542466 -96.277441 1.848400 -1.869470 0.012800 0.033260 -0.019240 -0.148360 
-0.106690 17.227020 -9.958590 -11.525386 -31.302546 -8.003794 -14.235545 12.575955 2.141222 9.002709 3.610271 -24.925460 6.774710 7.630114 40.781533 0.038544 6.657076 2.171341 0.374450 0.225050 0.374110 18.959105 -12.910792 4.047548 0.974797 -1.966994 5.828775 10.769820 -7.028383 10.217282 -0.830882 -5.573713 2.595608 0.069130 0.206660 0.394870 -6.053063 4.068540 -7.280876 33.650777 8.059335 27.878313 8.467820 10.045349 18.019560 -0.303505 0.807633 -10.059572 7.804808 1.920734 42.093815 -18.483020 9.876790 -4.273210 -0.208010 -1.817906 -1.452615 -18.838543 -11.295256 -0.089691 12.480421 3.587951 -0.152474 -4.760199 2.575956 0.188180 0.365860 -0.002830 0.117580 1.901699 11.761533 9.853866 64.653023 37.187700 10.155454 -139.727031 21.612290 -95.933823 1.867042 -1.895174 0.032950 0.012510 -0.054890 -0.146270 
-0.095860 17.222300 -9.953750 -12.122353 -32.618627 -8.144573 -14.270172 12.732895 2.136218 9.855286 4.142528 -24.676972 6.626271 7.976519 41.044645 0.087611 6.768468 2.126987 0.390450 0.233970 0.400720 18.905945 -12.821082 4.084466 1.202485 -2.171360 6.609218 10.604923 -7.006539 9.994875 -0.863892 -5.574822 2.593649 0.058810 0.179730 0.401760 -5.916648 3.761026 -7.295327 34.143752 7.858207 29.297170 8.449492 10.712198 16.615995 0.023372 0.955858 -9.690560 8.354624 2.023389 42.448842 -18.952360 10.478940 -4.667890 0.046652 -0.015385 -2.168647 -18.935884 -11.021316 -0.150829 11.075572 4.197266 -0.138305 -4.757804 2.507899 0.206320 0.343250 0.028030 0.125880 0.613031 10.601598 10.049037 66.084919 36.332607 10.555516 -139.609124 21.913184 -95.994731 1.887330 -1.899801 0.046440 0.000880 -0.078680 -0.147670 
-0.090400 17.221270 -9.946160 -12.429636 -34.076842 -8.342576 -14.318548 12.933029 2.140595 10.640912 4.702310 -24.251288 6.166348 8.451526 40.961910 0.118923 6.838869 2.099600 0.388920 0.236470 0.401400 18.834391 -12.710478 4.087887 1.255373 -2.226755 7.114404 10.340962 -7.020496 10.390590 -0.869480 -5.570625 2.610174 0.051670 0.166630 0.381400 -5.720767 3.331421 -7.310262 34.061850 7.805814 30.682507 8.781813 11.477497 15.309265 0.212242 0.842174 -9.341594 8.315520 2.270619 42.937708 -19.334040 10.984970 -4.816820 -0.121385 1.588664 -2.676654 -18.957039 -10.311726 -0.357689 10.294876 4.000987 -0.153721 -4.734225 2.455868 0.217690 0.327830 0.036000 0.130990 -0.009937 9.886158 10.169805 66.351531 35.415524 10.985477 -139.973493 22.414271 -96.778122 1.896202 -1.897783 0.042500 0.007970 -0.089950 -0.149100 
-0.078880 17.219830 -9.941800 -12.827329 -34.402433 -8.200715 -14.332772 13.014792 2.153340 10.777793 4.766792 -24.391731 6.444487 8.366491 41.022464 0.125932 6.840240 2.101783 0.375060 0.224760 0.389180 18.816076 -12.637816 4.084505 1.370715 -2.219296 7.215144 10.537309 -7.080955 10.649769 -0.867378 -5.574719 2.624769 0.042040 0.166180 0.363610 -5.650128 3.106571 -7.323286 34.486112 7.533557 30.985395 8.626029 11.484628 14.604814 0.407984 0.763420 -9.302143 8.152006 2.259622 43.460340 -19.671790 11.157870 -4.565310 -0.386598 2.118125 -2.707466 -18.495401 -9.402980 -0.601756 9.984997 3.771596 -0.161091 -4.714808 2.423637 0.223170 0.323210 0.034460 0.135510 -0.316629 9.365287 10.149112 66.727673 34.349618 11.500942 -140.799848 22.886032 -98.466120 1.898582 -1.896563 0.032690 0.017990 -0.091140 -0.148390 
-0.073320 17.221360 -9.940650 -12.867001 -34.508523 -8.367102 -14.355642 13.119219 2.164187 10.678804 4.742685 -24.304518 6.641799 8.244152 40.938637 0.156625 6.793345 2.117275 0.366090 0.222350 0.386640 18.783211 -12.561398 4.079306 1.270352 -2.187125 7.389375 10.759559 -7.135005 10.860680 -0.867696 -5.581335 2.618694 0.028970 0.154070 0.357590 -5.530700 2.829251 -7.341172 34.351511 7.332514 31.575883 8.738417 11.656466 13.763308 0.471229 0.764005 -9.159338 8.180365 2.215156 43.770383 -19.701160 11.256790 -4.202240 -0.513354 2.844291 -2.927314 -18.648059 -9.072666 -0.846937 10.160303 3.332809 -0.153239 -4.694677 2.443792 0.209920 0.311550 0.040900 0.131480 -0.512388 8.904756 10.183994 66.994428 33.399518 11.879635 -141.648258 23.280127 -100.290693 1.924641 -1.909385 0.046540 0.006150 -0.097920 -0.138280 
-0.071500 17.220430 -9.945430 -12.712177 -34.329206 -8.520265 -14.381216 13.192579 2.185145 10.391440 4.620876 -24.445684 6.938117 8.060310 40.990618 0.161971 6.774456 2.129416 0.360060 0.215400 0.383720 18.755388 -12.492629 4.060338 1.279142 -2.211999 7.441609 10.600376 -7.120822 10.977936 -0.860759 -5.560234 2.631788 0.020910 0.159080 0.352850 -5.413599 2.587639 -7.361808 33.784568 7.271165 31.912440 9.173560 11.761316 13.167970 0.434682 0.855325 -9.020921 8.314150 2.139082 43.864728 -19.671170 11.253120 -4.069420 -0.252077 3.486411 -3.160464 -19.200872 -9.087052 -0.910179 9.958216 3.206846 -0.168572 -4.689354 2.433763 0.208940 0.311080 0.038630 0.132590 -0.828560 8.495399 10.220184 67.289001 32.868388 12.336664 -142.285162 23.392459 -101.427543 1.925584 -1.915568 0.045690 0.011790 -0.096780 -0.135900 
-0.068620 17.226330 -9.952310 -12.539432 -34.727072 -8.886326 -14.383429 13.243690 2.164306 10.377706 4.715425 -23.963766 6.798957 8.115362 40.732333 0.158624 6.735798 2.153101 0.363370 0.215170 0.395490 18.740382 -12.514341 4.056440 1.135304 -2.197837 7.554839 10.240712 -7.106184 11.325547 -0.863283 -5.551960 2.637218 0.022630 0.153970 0.337290 -5.397454 2.546901 -7.340592 33.891704 7.249938 32.298145 9.051264 11.904108 13.332665 0.488841 0.712771 -9.105396 8.096130 2.034020 44.264836 -19.661750 11.008420 -4.160820 -0.208801 3.438084 -3.135232 -19.547442 -9.080709 -0.980620 10.311614 3.436797 -0.132226 -4.679207 2.413191 0.221490 0.297760 0.044720 0.135750 -0.992831 8.730645 10.339791 67.389329 32.654763 12.085291 -142.557406 23.261797 -102.021194 1.934945 -1.900329 0.035150 0.028810 -0.106200 -0.138510 
-0.064600 17.232660 -9.963270 -12.387616 -34.618254 -9.318521 -14.370519 13.240458 2.127208 10.216264 4.701475 -23.521062 6.902624 7.986046 40.513517 0.155966 6.660685 2.175808 0.382550 0.238190 0.401350 18.747580 -12.569214 4.060991 1.018951 -2.182133 7.708840 10.111218 -7.146437 11.651543 -0.879984 -5.586587 2.622192 0.030150 0.139170 0.344710 -5.449920 2.632428 -7.307865 34.277373 7.071548 32.410991 8.663239 11.588091 14.100704 0.569959 0.562159 -9.356701 7.769419 1.995250 44.351238 -19.560180 10.621040 -4.401230 -0.276483 2.674550 -2.788339 -19.350180 -8.822964 -0.997274 10.537749 4.028643 -0.077010 -4.677666 2.424817 0.221600 0.287610 0.056520 0.141260 -0.933862 9.255012 10.303287 67.161883 32.991298 11.792536 -142.682694 22.815764 -101.910995 1.935182 -1.903441 0.051670 0.019000 -0.115790 -0.133520 
-0.057120 17.234560 -9.973370 -12.488527 -34.031683 -9.465546 -14.364880 13.238881 2.109442 9.927757 4.532210 -23.488472 7.405727 7.604092 40.353115 0.144724 6.565388 2.195094 0.391400 0.248320 0.403410 18.755860 -12.568261 4.072752 1.106801 -2.225294 7.835053 10.285339 -7.184976 11.559276 -0.891559 -5.611415 2.600534 0.027530 0.121680 0.363260 -5.458678 2.627464 -7.303781 34.581496 6.822986 32.417129 8.478602 11.318626 14.281194 0.666343 0.589575 -9.497434 7.766546 1.895876 44.235975 -19.670780 10.478160 -4.567470 -0.016442 2.415743 -2.689518 -19.608226 -8.835552 -1.058689 10.736833 4.011911 -0.072306 -4.677745 2.464746 0.217950 0.283030 0.064040 0.131990 -1.314512 9.338744 10.338671 67.305505 33.121749 11.506814 -142.557605 22.364895 -101.295404 1.935031 -1.916195 0.074250 -0.009180 -0.112260 -0.132510 
-0.048970 17.236060 -9.983310 -12.484375 -33.353768 -9.776355 -14.366294 13.265224 2.088886 9.534698 4.336873 -23.345905 8.113615 7.138061 40.254807 0.116653 6.500392 2.222447 0.379270 0.231520 0.392640 18.753898 -12.548821 4.086241 1.025045 -2.232793 8.071396 10.719747 -7.272759 11.410101 -0.897062 -5.654465 2.585622 0.024880 0.133000 0.363230 -5.431268 2.551618 -7.304517 34.613295 6.548759 32.662320 8.416381 11.112120 14.143579 0.673219 0.639215 -9.442890 7.847768 1.865427 44.009782 -19.519480 10.307730 -4.634650 0.096574 2.456799 -2.805699 -19.694943 -9.109690 -1.054461 11.040976 4.022750 -0.080063 -4.694244 2.461047 0.225380 0.288310 0.055450 0.125910 -1.417558 9.259303 10.327256 67.142619 33.219460 11.234916 -142.293193 22.294196 -100.805686 1.926179 -1.906518 0.062120 -0.001230 -0.096240 -0.136920 
